# xmcd CD database file
#
# Track frame offsets:
#	150
#	10952
#	23800
#	39232
#	52425
#	66070
#	84645
#	99207
#	114405
#	129280
#
# Disc length: 1918 seconds
#
# Revision: 3
# Processed by: cddbd v1.4PL0 Copyright (c) Steve Scherf et al.
# Submitted via: CDex 1.51
#
DISCID=78077c0a
DTITLE=Tracy Byrd - No Ordinary Man
DYEAR=1994
DGENRE=Country
TTITLE0=The First Step
TTITLE1=Lifestyles of the Not so Rich and Famous
TTITLE2=No Ordinary Man
TTITLE3=Anybody Else's Heart But Mine
TTITLE4=Watermelon Crawl
TTITLE5=The Keeper of the Stars
TTITLE6=You Never Know Just How Good You've Got It
TTITLE7=Redneck Roses
TTITLE8=Right About Now
TTITLE9=Pink Flamingos
EXTD=YEAR: 1994
EXTT0=
EXTT1=
EXTT2=
EXTT3=
EXTT4=
EXTT5=
EXTT6=
EXTT7=
EXTT8=
EXTT9=
PLAYORDER=
